<svg width="564" height="98" viewBox="0 0 564 98" fill="none" xmlns="http://www.w3.org/2000/svg">
<path d="M245.062 68.7581C254.494 68.7581 262.141 61.1505 262.141 51.7661C262.141 42.3817 254.494 34.7742 245.062 34.7742C235.63 34.7742 227.983 42.3817 227.983 51.7661C227.983 61.1505 235.63 68.7581 245.062 68.7581Z" fill="#FFC938"/>
<path d="M457.158 70.3387C466.59 70.3387 474.237 62.7312 474.237 53.3468C474.237 43.9624 466.59 36.3548 457.158 36.3548C447.725 36.3548 440.079 43.9624 440.079 53.3468C440.079 62.7312 447.725 70.3387 457.158 70.3387Z" fill="#FFC938"/>
<path d="M157.418 39.8072H141.785V79.0324H124.093V39.8072H108.46V25.9228H157.418V39.8072ZM204.381 51.1878C207.381 52.25 209.669 53.8433 211.245 55.9677C212.821 58.0415 213.609 60.5958 213.609 63.6306C213.609 68.3852 211.702 72.1535 207.889 74.9354C204.127 77.6668 198.789 79.0324 191.875 79.0324H163.354V25.9228H190.426C197.035 25.9228 202.144 27.1367 205.754 29.5646C209.414 31.9924 211.245 35.4066 211.245 39.8072C211.245 42.3362 210.634 44.5617 209.414 46.4838C208.245 48.4059 206.567 49.9739 204.381 51.1878ZM181.045 46.3321H188.672C191.62 46.3321 193.095 45.0423 193.095 42.4626C193.095 39.7819 191.62 38.4415 188.672 38.4415H181.045V46.3321ZM191.036 66.5137C193.985 66.5137 195.459 65.0975 195.459 62.265C195.459 59.5336 193.985 58.1679 191.036 58.1679H181.045V66.5137H191.036ZM247.175 80.2464C241.43 80.2464 236.269 79.0577 231.694 76.6804C227.118 74.3032 223.534 71.0154 220.941 66.8172C218.349 62.5684 217.052 57.7886 217.052 52.4776C217.052 47.1666 218.349 42.4121 220.941 38.2139C223.534 33.9651 227.118 30.6521 231.694 28.2748C236.269 25.8975 241.43 24.7088 247.175 24.7088C252.919 24.7088 258.08 25.8975 262.655 28.2748C267.231 30.6521 270.815 33.9651 273.408 38.2139C276 42.4121 277.297 47.1666 277.297 52.4776C277.297 57.7886 276 62.5684 273.408 66.8172C270.815 71.0154 267.231 74.3032 262.655 76.6804C258.08 79.0577 252.919 80.2464 247.175 80.2464ZM247.175 65.755C249.411 65.755 251.42 65.2239 253.199 64.1617C255.029 63.049 256.478 61.5063 257.546 59.5336C258.613 57.5104 259.147 55.1584 259.147 52.4776C259.147 49.7968 258.613 47.4701 257.546 45.4975C256.478 43.4743 255.029 41.9315 253.199 40.8694C251.42 39.7566 249.411 39.2002 247.175 39.2002C244.938 39.2002 242.904 39.7566 241.074 40.8694C239.294 41.9315 237.871 43.4743 236.803 45.4975C235.736 47.4701 235.202 49.7968 235.202 52.4776C235.202 55.1584 235.736 57.5104 236.803 59.5336C237.871 61.5063 239.294 63.049 241.074 64.1617C242.904 65.2239 244.938 65.755 247.175 65.755ZM283.774 25.9228H301.466V53.5398L319.845 25.9228H336.774V79.0324H319.082V51.4913L300.78 79.0324H283.774V25.9228ZM310.236 22.8879C304.339 22.8879 300.094 21.8004 297.501 19.6255C294.908 17.4505 293.612 14.1881 293.612 9.83813H305.584C305.584 11.5579 305.915 12.7971 306.576 13.5558C307.287 14.3145 308.508 14.6939 310.236 14.6939C311.965 14.6939 313.185 14.3145 313.897 13.5558C314.659 12.7971 315.04 11.5579 315.04 9.83813H327.013C327.013 14.1881 325.691 17.4505 323.048 19.6255C320.404 21.8004 316.133 22.8879 310.236 22.8879ZM428.983 65.1481V89.4268H412.511V79.0324H382.16V89.4268H365.688V65.1481H367.213C370.314 65.1481 372.5 63.2007 373.771 59.306C375.042 55.4113 375.855 49.6704 376.211 42.0833L376.821 25.9228H421.967V65.1481H428.983ZM391.844 43.6007C391.641 48.7094 391.234 53.0593 390.624 56.6505C390.014 60.1912 389.074 63.0237 387.803 65.1481H404.275V39.8072H391.997L391.844 43.6007ZM462.175 80.2464C456.43 80.2464 451.27 79.0577 446.695 76.6804C442.119 74.3032 438.535 71.0154 435.942 66.8172C433.349 62.5684 432.053 57.7886 432.053 52.4776C432.053 47.1666 433.349 42.4121 435.942 38.2139C438.535 33.9651 442.119 30.6521 446.695 28.2748C451.27 25.8975 456.43 24.7088 462.175 24.7088C467.92 24.7088 473.08 25.8975 477.656 28.2748C482.231 30.6521 485.816 33.9651 488.408 38.2139C491.001 42.4121 492.298 47.1666 492.298 52.4776C492.298 57.7886 491.001 62.5684 488.408 66.8172C485.816 71.0154 482.231 74.3032 477.656 76.6804C473.08 79.0577 467.92 80.2464 462.175 80.2464ZM462.175 65.755C464.412 65.755 466.42 65.2239 468.2 64.1617C470.03 63.049 471.479 61.5063 472.547 59.5336C473.614 57.5104 474.148 55.1584 474.148 52.4776C474.148 49.7968 473.614 47.4701 472.547 45.4975C471.479 43.4743 470.03 41.9315 468.2 40.8694C466.42 39.7566 464.412 39.2002 462.175 39.2002C459.938 39.2002 457.905 39.7566 456.075 40.8694C454.295 41.9315 452.872 43.4743 451.804 45.4975C450.736 47.4701 450.203 49.7968 450.203 52.4776C450.203 55.1584 450.736 57.5104 451.804 59.5336C452.872 61.5063 454.295 63.049 456.075 64.1617C457.905 65.2239 459.938 65.755 462.175 65.755ZM546.437 79.0324L546.284 54.8296L534.693 74.2526H526.762L515.171 55.6642V79.0324H498.775V25.9228H513.569L530.956 54.2226L547.886 25.9228H562.68L562.833 79.0324H546.437Z" fill="#131F35"/>
<path fill-rule="evenodd" clip-rule="evenodd" d="M79.4366 0H0V79.0323H79.4366V0ZM63.5493 15.8065H15.8873V63.2258H63.5493V15.8065Z" fill="#2A8E9D"/>
<path d="M39.7183 39.5161L63.5493 15.8064H15.8873L39.7183 39.5161Z" fill="#FFC938"/>
</svg>
