<svg width="15" height="13" viewBox="0 0 15 13" fill="none" xmlns="http://www.w3.org/2000/svg">
<path d="M13.815 11.0758C14.0636 11.1325 14.25 11.3549 14.25 11.6214C14.25 11.9309 13.9988 12.1808 13.6905 12.1808H1.30952C1.00088 12.1808 0.75 11.9307 0.75 11.6214C0.75 11.3554 0.9355 11.1331 1.18386 11.076C0.935324 11.0189 0.75 10.796 0.75 10.5307V1.41376C0.75 1.1882 0.886045 0.983657 1.09508 0.89696C1.30358 0.809717 1.54412 0.856887 1.70423 1.01596L1.70457 1.0163L1.70457 1.0163L3.95229 3.25817L3.95243 3.25832C4.16307 3.46875 4.17394 3.81043 3.96958 4.03217C3.88747 4.12129 3.80965 4.24707 3.80965 4.39722C3.80965 4.56856 3.90719 4.74837 4.11319 4.89526C4.31852 5.04167 4.61468 5.14011 4.9525 5.14011C5.29053 5.14011 5.58668 5.04177 5.79193 4.89546C5.99779 4.7487 6.09536 4.56892 6.09536 4.39722C6.09536 4.15994 5.88746 3.87365 5.44129 3.72814C5.25485 3.669 5.11487 3.51593 5.0692 3.32814L5.06914 3.32788C5.02339 3.13886 5.0792 2.93854 5.21748 2.80072L5.21727 2.80092L5.39408 2.97764L5.21772 2.80048L13.815 11.0758ZM13.815 11.0758C14.0638 11.0191 14.25 10.796 14.25 10.5303V1.41376C14.25 1.18728 14.1131 0.984086 13.9054 0.897129L13.9054 0.897109L13.9024 0.895872C13.6966 0.812903 13.4582 0.85707 13.2975 1.01503L13.2975 1.01503L13.2964 1.01611L11.047 3.25474M13.815 11.0758L11.047 3.25474M9.9304 3.3273C9.97627 3.13767 9.91914 2.93779 9.78188 2.80076L9.78193 2.80081L9.60511 2.97754L9.78162 2.8005L9.6873 3.26895M9.9304 3.3273C9.93046 3.32703 9.93052 3.32677 9.93059 3.32651L9.6873 3.26895M9.9304 3.3273C9.93034 3.32756 9.93027 3.32782 9.93021 3.32808L9.6873 3.26895M9.9304 3.3273C9.88511 3.51749 9.74342 3.66875 9.55842 3.72793M9.6873 3.26895C9.66254 3.37362 9.58447 3.4573 9.48175 3.48998M9.55842 3.72793C9.55864 3.72786 9.55885 3.72779 9.55907 3.72772L9.48175 3.48998M9.55842 3.72793C9.11159 3.87345 8.90349 4.15987 8.90349 4.39711C8.90349 4.56839 9.00107 4.74821 9.20715 4.89514C9.41254 5.04157 9.70871 5.13999 10.0463 5.13999C10.3841 5.13999 10.6802 5.04167 10.8855 4.89533C11.0915 4.74854 11.1891 4.56875 11.1891 4.39711C11.1891 4.24759 11.1115 4.12223 11.0268 4.02888L11.2119 3.86083M9.55842 3.72793C9.55812 3.72803 9.55783 3.72812 9.55753 3.72821L9.48175 3.48998M9.48175 3.48998L11.2119 3.86083M11.2119 3.86083L11.0277 4.02987C10.8259 3.80999 10.8327 3.46685 11.0468 3.25499L11.0464 3.25534L11.2228 3.43254M11.2119 3.86083C11.1007 3.73966 11.1043 3.54959 11.2228 3.43254M11.2228 3.43254L11.047 3.25474M11.2228 3.43254L11.047 3.25474M5.31213 3.26907C5.33757 3.37373 5.41553 3.45799 5.51767 3.49009C6.02036 3.65368 6.34536 4.00906 6.34536 4.39722C6.34536 4.94485 5.72081 5.39011 4.9525 5.39011C4.18443 5.39011 3.55965 4.94428 3.55965 4.39722C3.55965 4.15866 3.68243 3.9749 3.78571 3.86278L5.31213 3.26907ZM4.52869 9.9712H1.86905V2.76256L2.83993 3.73053C2.74218 3.94051 2.69049 4.16602 2.69049 4.39883C2.69049 5.476 3.7596 6.2611 4.95239 6.2611C6.14532 6.2611 7.21429 5.47463 7.21429 4.39883C7.21429 3.87265 6.95466 3.40082 6.53751 3.06504L7.49993 2.10231L8.46193 3.06546C8.04473 3.40107 7.78616 3.87374 7.78616 4.39952C7.78616 5.47681 8.85529 6.26179 10.0481 6.26179C11.241 6.26179 12.31 5.47531 12.31 4.39952C12.31 4.1658 12.258 3.93906 12.1591 3.72843L13.1314 2.76109V9.97143L4.62012 9.97909C4.58825 9.97344 4.55737 9.9712 4.52869 9.9712Z" fill="#2A8E9D" stroke="#2A8E9D" stroke-width="0.5"/>
</svg>
