<svg width="30" height="32" viewBox="0 0 30 32" fill="none" xmlns="http://www.w3.org/2000/svg">
<path d="M13.0955 19.993L13.0398 19.9558L12.9763 19.9346C12.3893 19.739 11.8001 19.6089 11.209 19.5453H12.2526L11.399 18.6918C10.6167 17.9095 10.1818 17.2124 10.1818 16.3181C10.1818 15.9 10.4037 15.3105 10.6745 14.769L11.0173 14.0833C12.3304 14.002 13.4418 13.2687 14.1588 12.1573C14.9156 10.9842 15.2368 9.39273 14.9494 7.65503C14.7302 5.91875 13.9703 4.36172 12.9333 3.21557C11.8982 2.07153 10.5557 1.30524 9.16409 1.22793C7.72969 1.14824 6.54684 1.87543 5.80033 3.04306C5.06065 4.19999 4.74242 5.78859 4.95841 7.51645C5.1757 9.25482 5.93501 10.8474 6.97066 12.0284C7.89871 13.0867 9.08011 13.8474 10.3282 14.0453H10.2273H10.2249H10.2225H10.2201H10.2177H10.2153H10.2129H10.2106H10.2082H10.2058H10.2035H10.2011H10.1987H10.1964H10.194H10.1917H10.1893H10.187H10.1846H10.1823H10.1799H10.1776H10.1753H10.173H10.1706H10.1683H10.166H10.1637H10.1614H10.159H10.1567H10.1544H10.1521H10.1498H10.1475H10.1452H10.143H10.1407H10.1384H10.1361H10.1338H10.1315H10.1293H10.127H10.1247H10.1225H10.1202H10.118H10.1157H10.1134H10.1112H10.1089H10.1067H10.1045H10.1022H10.1H10.0978H10.0955H10.0933H10.0911H10.0889H10.0866H10.0844H10.0822H10.08H10.0778H10.0756H10.0734H10.0712H10.069H10.0668H10.0646H10.0624H10.0602H10.058H10.0558H10.0537H10.0515H10.0493H10.0471H10.045H10.0428H10.0407H10.0385H10.0363H10.0342H10.032H10.0299H10.0277H10.0256H10.0234H10.0213H10.0192H10.017H10.0149H10.0128H10.0106H10.0085H10.0064H10.0043H10.0022H10H9.99794H9.99583H9.99372H9.99162H9.98951H9.98741H9.98532H9.98322H9.98113H9.97904H9.97696H9.97487H9.97279H9.97071H9.96863H9.96656H9.96449H9.96242H9.96035H9.95828H9.95622H9.95416H9.9521H9.95005H9.94799H9.94594H9.94389H9.94185H9.9398H9.93776H9.93572H9.93368H9.93165H9.92962H9.92759H9.92556H9.92353H9.92151H9.91949H9.91747H9.91545H9.91344H9.91143H9.90942H9.90741H9.90541H9.9034H9.9014H9.8994H9.89741H9.89541H9.89342H9.89143H9.88945H9.88746H9.88548H9.8835H9.88152H9.87954H9.87757H9.87559H9.87362H9.87165H9.86969H9.86772H9.86576H9.8638H9.86185H9.85989H9.85794H9.85598H9.85404H9.85209H9.85014H9.8482H9.84626H9.84432H9.84238H9.84045H9.83852H9.83658H9.83465H9.83273H9.8308H9.82888H9.82696H9.82504H9.82312H9.82121H9.81929H9.81738H9.81548H9.81357H9.81166H9.80976H9.80786H9.80596H9.80406H9.80217H9.80027H9.79838H9.79649H9.7946H9.79272H9.79083H9.78895H9.78707H9.78519H9.78331H9.78144H9.77956H9.77769H9.77582H9.77396H9.77209H9.77023H9.76836H9.7665H9.76464H9.76279H9.76093H9.75908H9.75723H9.75538H9.75353H9.75168H9.74984H9.74799H9.74615H9.74431H9.74248H9.74064H9.7388H9.73697H9.73514H9.73331H9.73148H9.72966H9.72783H9.72601H9.72419H9.72237H9.72055H9.71874H9.71692H9.71511H9.7133H9.71149H9.70968H9.70787H9.70607H9.70427H9.70246H9.70066H9.69887H9.69707H9.69527H9.69348H9.69169H9.6899H9.68811H9.68632H9.68453H9.68275H9.68097H9.67918H9.6774H9.67562H9.67385H9.67207H9.6703H9.66852H9.66675H9.66498H9.66321H9.66145H9.65968H9.65792H9.65616H9.65439H9.65263H9.65088H9.64912H9.64736H9.64561H9.64386H9.6421H9.64035H9.6386H9.63686H9.63511H9.63337H9.63162H9.62988H9.62814H9.6264H9.62466H9.62292H9.62119H9.61945H9.61772H9.61599H9.61426H9.61253H9.6108H9.60908H9.60735H9.60563H9.6039H9.60218H9.60046H9.59874H9.59702H9.59531H9.59359H9.59188H9.59016H9.58845H9.58674H9.58503H9.58332H9.58161H9.57991H9.5782H9.5765H9.5748H9.57309H9.57139H9.56969H9.568H9.5663H9.5646H9.56291H9.56121H9.55952H9.55783H9.55614H9.55445H9.55276H9.55107H9.54938H9.5477H9.54601H9.54433H9.54265H9.54097H9.53929H9.53761H9.53593H9.53425H9.53257H9.5309H9.52922H9.52755H9.52588H9.52421H9.52254H9.52087H9.5192H9.51753H9.51586H9.5142H9.51253H9.51087H9.5092H9.50754H9.50588H9.50422H9.50256H9.5009H9.49924H9.49758H9.49593H9.49427H9.49262H9.49096H9.48931H9.48766H9.486H9.48435H9.4827H9.48106H9.47941H9.47776H9.47611H9.47447H9.47282H9.47118H9.46953H9.46789H9.46625H9.46461H9.46297H9.46133H9.45969H9.45805H9.45641H9.45477H9.45314H9.4515H9.44986H9.44823H9.4466H9.44496H9.44333H9.4417H9.44007H9.43844H9.43681H9.43518H9.43355H9.43192H9.43029H9.42867H9.42704H9.42541H9.42379H9.42216H9.42054H9.41892H9.41729H9.41567H9.41405H9.41243H9.41081H9.40919H9.40757H9.40595H9.40433H9.40271H9.40109H9.39948H9.39786H9.39624H9.39463H9.39301H9.3914H9.38978H9.38817H9.38655H9.38494H9.38333H9.38172H9.3801H9.37849H9.37688H9.37527H9.37366H9.37205H9.37044H9.36883H9.36722H9.36561H9.36401H9.3624H9.36079H9.35918H9.35758H9.35597H9.35437H9.35276H9.35115H9.34955H9.34794H9.34634H9.34474H9.34313H9.34153H9.33992H9.33832H9.33672H9.33511H9.33351H9.33191H9.33031H9.32871H9.3271H9.3255H9.3239H9.3223H9.3207H9.3191H9.3175H9.3159H9.3143H9.3127H9.3111H9.3095H9.3079H9.3063H9.3047H9.3031H9.3015H9.2999H9.2983H9.29671H9.29511H9.29351H9.29191H9.29031H9.28871H9.28711H9.28552H9.28392H9.28232H9.28072H9.27912H9.27753H9.27593H9.27433H9.27273C5.17897 14.0453 2.40908 11.1266 2.40908 7.45444C2.40908 5.73025 3.33448 4.08852 4.81844 2.86264C6.30086 1.63804 8.30295 0.863525 10.3636 0.863525H18.5455L17.697 1.49989H14.8636L14.6779 2.46413C16.4617 3.17765 17.5 5.25043 17.5 7.5908C17.5 9.44561 16.5124 11.0815 14.9727 12.2363C14.1618 12.8444 13.6195 13.2978 13.2941 13.7655C12.9395 14.2752 12.8636 14.767 12.8636 15.3635C12.8636 15.7244 13.0479 16.077 13.2384 16.3604C13.4409 16.6618 13.7109 16.9715 13.9933 17.2627C14.5593 17.8464 15.2258 18.4071 15.6344 18.7476L15.6459 18.7572L15.6579 18.7661C16.9223 19.6977 17.7062 20.5286 18.1679 21.4367C18.6269 22.3394 18.7935 23.3696 18.7278 24.7488L18.7273 24.7607V24.7726C18.7273 27.8214 15.7709 31.2272 9.81818 31.2272C7.21896 31.2272 4.85332 30.6927 3.15653 29.7554C1.46072 28.8187 0.5 27.5265 0.5 25.9999C0.5 24.4246 1.41278 22.8194 3.01469 21.5897C4.61082 20.3644 6.8549 19.5453 9.40908 19.5453H9.41228H9.41547H9.41867H9.42187H9.42506H9.42826H9.43145H9.43465H9.43785H9.44104H9.44424H9.44535C7.84798 19.7036 6.36303 20.2665 5.21353 21.0941C3.85123 22.075 2.90909 23.471 2.90909 25.0453C2.90909 28.2729 5.95703 30.7272 9.81818 30.7272C12.4739 30.7272 14.3784 30.1343 15.6093 29.1118C16.8529 28.0786 17.3441 26.6606 17.2727 25.1695C17.2727 25.0364 17.2725 24.8476 17.2532 24.6547C17.2355 24.4772 17.1986 24.2596 17.1091 24.0577C16.8684 23.1403 16.3613 22.4578 15.6743 21.8432C15.0754 21.3073 14.3135 20.8017 13.4559 20.2325C13.3375 20.1539 13.2174 20.0742 13.0955 19.993ZM25.6818 13.8635V14.3635H26.1818H29.5V16.3635H26.1818H25.6818V16.8635V20.1817H23.6818V16.8635V16.3635H23.1818H19.8636V14.3635H23.1818H23.6818V13.8635V10.5453H25.6818V13.8635Z" fill="#FCFCFC" stroke="#FCFCFC"/>
</svg>
