<svg width="20" height="22" viewBox="0 0 20 22" fill="none" xmlns="http://www.w3.org/2000/svg">
<path d="M13.8074 8.81706C14.1874 8.2556 14.4043 5.77233 14.4043 5.0781C14.4043 2.96395 12.3892 1.25 9.90408 1.25C7.41942 1.25 5.4043 2.96395 5.4043 5.0781C5.4043 5.79268 5.63429 8.29332 6.03471 8.8655C6.81945 9.98693 8.25894 11 9.90365 11C11.5736 11 13.0305 9.96512 13.8074 8.81706Z" stroke="#131F35" stroke-width="1.5" stroke-linejoin="round"/>
<path d="M13.0937 12.8793C11.2902 13.734 10.4425 13.9422 10.058 13.9793C9.67321 13.9422 8.82632 13.734 7.02196 12.8793C4.13525 11.5132 1 16.9801 1 20.7501C2.25073 20.7501 8.39084 20.7501 10.0087 20.7501C10.0429 20.7501 10.0783 20.7501 10.1083 20.7501C11.7261 20.7501 17.8667 20.7501 19.117 20.7501C19.1161 16.9801 15.9804 11.5132 13.0937 12.8793Z" stroke="#131F35" stroke-width="1.5" stroke-linejoin="round"/>
</svg>
