<svg width="102" height="86" viewBox="0 0 102 86" fill="none" xmlns="http://www.w3.org/2000/svg">
<path d="M28.091 77.0007H28.0908C27.9038 77.0007 27.7252 76.9811 27.5455 76.9442H3.38095C1.92877 76.9442 0.75 75.7625 0.75 74.3133V4.18276C0.75 3.12173 1.39162 2.15843 2.37475 1.75181C3.35429 1.34081 4.48554 1.56213 5.23793 2.30964L5.23827 2.30999L22.5284 19.5551L22.5285 19.5553C23.5225 20.5483 23.5679 22.1543 22.6124 23.1908C21.8391 24.0302 20.9396 25.3858 20.9396 27.1325C20.9396 29.1344 22.0824 30.9753 23.9763 32.3258C25.8694 33.6757 28.4959 34.5201 31.4039 34.5201C34.3128 34.5201 36.9393 33.6768 38.8322 32.3274C40.7257 30.9776 41.8682 29.1366 41.8682 27.1325C41.8682 24.2976 39.4855 21.6331 35.6753 20.3927C34.8051 20.1188 34.1433 19.4018 33.9273 18.5134L33.9272 18.5132C33.7119 17.6236 33.9757 16.6813 34.6243 16.0356L49.1371 1.51573L49.1376 1.51526C50.1628 0.494913 51.8319 0.494912 52.8571 1.51526L52.8576 1.51573L67.3696 16.0348L28.091 77.0007ZM28.091 77.0007L98.619 76.9407L28.091 77.0007ZM99.6265 1.75196L99.6265 1.75198C100.608 2.16269 101.25 3.1208 101.25 4.18276V74.3097C101.25 75.759 100.069 76.9406 98.6193 76.9407L99.6265 1.75196ZM99.6265 1.75196L99.6235 1.75072M99.6265 1.75196L99.6235 1.75072M99.6235 1.75072C98.6451 1.35627 97.5206 1.56999 96.7692 2.30871L96.7681 2.30979M99.6235 1.75072L96.7681 2.30979M96.7681 2.30979L79.4609 19.5341M96.7681 2.30979L79.4609 19.5341M79.4609 19.5341C79.4609 19.5341 79.4609 19.5341 79.4608 19.5342M79.4609 19.5341L79.4608 19.5342M79.4608 19.5342C78.4543 20.5291 78.4227 22.1438 79.3681 23.1747M79.4608 19.5342L67.3699 16.0351C68.0164 16.6799 68.2846 17.6221 68.0686 18.5112C67.8578 19.4022 67.1935 20.1138 66.3208 20.3917C62.5075 21.632 60.123 24.2967 60.123 27.1316C60.123 29.1334 61.2665 30.9744 63.1607 32.3249C65.0542 33.6749 67.6807 34.5192 70.5873 34.5192C73.494 34.5192 76.1203 33.6759 78.0135 32.3265C79.9074 30.9767 81.0507 29.1357 81.0507 27.1316C81.0507 25.3858 80.1486 24.0345 79.3681 23.1747M79.3681 23.1747C79.368 23.1746 79.3679 23.1745 79.3678 23.1744L79.5529 23.0064L79.3687 23.1754C79.3685 23.1752 79.3683 23.175 79.3681 23.1747ZM3.38095 85.3331H98.619C100.069 85.3331 101.25 84.1572 101.25 82.703C101.25 81.249 100.068 80.0721 98.619 80.0721H3.38095C1.92907 80.0721 0.75 81.2492 0.75 82.703C0.75 84.1571 1.92919 85.3331 3.38095 85.3331ZM28.1437 71.6823H6.0119V10.5275L17.2091 21.6912C16.2044 23.3805 15.6768 25.2308 15.6768 27.1448C15.6768 34.1793 22.7861 39.797 31.403 39.797C40.0201 39.797 47.1292 34.1695 47.1292 27.1448C47.1292 23.1075 44.8059 19.4443 41.0112 17.1045L50.9999 7.11229L60.9851 17.1093C57.1902 19.4416 54.8743 23.1127 54.8743 27.1501C54.8743 34.1855 61.9836 39.8022 70.6005 39.8022C79.2176 39.8022 86.3267 34.1748 86.3267 27.1501C86.3267 25.2269 85.7951 23.3662 84.7794 21.6774L95.9916 10.5222V71.6825L28.6788 71.7431C28.502 71.7004 28.32 71.6823 28.1437 71.6823Z" fill="#2A8E9D" stroke="#2A8E9D" stroke-width="0.5"/>
</svg>
