<svg width="58" height="66" viewBox="0 0 58 66" fill="none" xmlns="http://www.w3.org/2000/svg">
<path d="M37.0371 9.51969C30.4033 0.842192 17.9458 -0.819064 9.26832 5.81469C0.594569 12.4484 -1.07045 24.9022 5.56455 33.5809C11.3496 41.1497 21.5646 43.3772 29.8396 39.4222L31.9508 42.1834L30.6571 43.1722L46.5871 63.9834L50.8983 60.6884L55.5621 57.1209L39.6283 36.3097L38.4171 37.2372L36.3058 34.4772C42.2946 27.5297 42.8233 17.0884 37.0371 9.51969ZM11.1708 29.2959C6.89832 23.7072 7.9683 15.6884 13.5546 11.4197C19.1421 7.14593 27.1621 8.21718 31.4346 13.8047C35.7033 19.3897 34.6333 27.4084 29.0446 31.6809C23.4608 35.9509 15.4408 34.8809 11.1708 29.2959Z" stroke="#131F35" stroke-width="3" stroke-linejoin="round"/>
<path d="M29.0582 17.5745C27.6782 14.9257 24.9069 13.1157 21.7119 13.1157" stroke="#2A8E9D" stroke-width="3" stroke-linecap="round" stroke-linejoin="round"/>
</svg>
