<svg width="174" height="213" viewBox="0 0 174 213" fill="none" xmlns="http://www.w3.org/2000/svg">
<g opacity="0.5">
<path d="M111.285 24.0249V139.652M62.7139 139.652V24.0249V139.652Z" stroke="#F9F9F9" stroke-width="3" stroke-linecap="square"/>
<path d="M14.1429 139.651H159.857H14.1429ZM14.1429 101.109H159.857H14.1429ZM14.1429 62.5665H159.857H14.1429ZM159.857 211.23V24.0242H14.1429V211.23H159.857ZM2 18.5181C2 21.8218 4.42857 24.0242 8.07143 24.0242H165.929C169.571 24.0242 172 21.8218 172 18.5181V7.50604C172 4.20242 169.571 2 165.929 2H8.07143C4.42857 2 2 4.20242 2 7.50604V18.5181Z" stroke="#F9F9F9" stroke-width="3"/>
<path d="M2 211.231H62.7143V183.701C62.7143 171.588 73.6429 161.677 87 161.677C100.357 161.677 111.286 171.588 111.286 183.701V211.231H172" stroke="#F9F9F9" stroke-width="3" stroke-linecap="round" stroke-linejoin="round"/>
</g>
</svg>
