<svg width="204" height="162" viewBox="0 0 204 162" fill="none" xmlns="http://www.w3.org/2000/svg">
<g opacity="0.5">
<path d="M44.1053 128.316V154.632C44.1053 157.263 46.2105 159.895 49.3684 159.895H123.053V128.316H44.1053ZM123.053 128.316V159.895H196.737C199.895 159.895 202 157.263 202 154.632V133.579C202 130.947 199.895 128.316 196.737 128.316H123.053ZM123.053 65.1579H49.3684C46.2105 65.1579 44.1053 67.2631 44.1053 69.8947V96.7368H123.053V65.1579ZM123.053 65.1579V96.7368H196.737C199.895 96.7368 202 94.1053 202 91.4737V70.4211C202 67.7895 199.895 65.1579 196.737 65.1579H123.053ZM7.26316 96.7368C4.10526 96.7368 2 99.3684 2 102V123.053C2 125.684 4.10526 128.316 7.26316 128.316H80.9474V96.7368H7.26316ZM80.9474 128.316H159.895V96.7368H80.9474V128.316ZM154.632 33.5789H86.2105C83.0526 33.5789 80.9474 35.6842 80.9474 38.3158V65.1579H159.895V38.3158C159.895 35.6842 157.789 33.5789 154.632 33.5789ZM7.26316 33.5789C4.10526 33.5789 2 36.2105 2 38.8421V59.8947C2 62.5263 4.10526 65.1579 7.26316 65.1579H80.9474V38.3158C80.9474 35.6842 78.8421 33.5789 75.6842 33.5789H7.26316ZM49.3684 2C46.2105 2 44.1053 4.63158 44.1053 7.26316V33.5789H123.053V7.26316C123.053 4.63158 120.947 2 117.789 2H49.3684Z" stroke="#131F35" stroke-width="3" stroke-linecap="square"/>
</g>
</svg>
