<svg width="204" height="205" viewBox="0 0 204 205" fill="none" xmlns="http://www.w3.org/2000/svg">
<g opacity="0.5">
<path d="M139.765 138.169L65.2969 63.7007" stroke="#131F35" stroke-width="3" stroke-linecap="round" stroke-linejoin="round"/>
<path d="M176.999 106.254C176.999 97.211 170.084 90.2961 161.042 90.2961C151.999 90.2961 145.084 83.3812 145.084 74.3387C145.084 65.2961 138.169 58.3812 129.127 58.3812C120.084 58.3812 113.169 51.4663 113.169 42.4238C113.169 33.3812 106.254 26.4663 97.2119 26.4663" stroke="#131F35" stroke-width="3"/>
<path d="M33.3824 175.403C33.3824 178.594 31.2548 180.722 28.0633 180.722C24.8718 180.722 22.7441 178.594 22.7441 175.403C22.7441 172.211 24.8718 170.083 28.0633 170.083C31.2548 170.083 33.3824 172.211 33.3824 175.403Z" stroke="#131F35" stroke-width="3"/>
<path d="M75.9362 147.213C79.1277 142.426 86.0425 139.766 91.3617 141.362L124.34 152.532C127 153.596 131.255 152.532 133.383 150.404L200.404 83.383C202.532 81.2553 202.532 78.0639 200.404 75.9362L128.064 3.59575C125.936 1.46808 122.745 1.46808 120.617 3.59575L53.5957 70.6171C51.4681 72.7447 50.4042 76.4681 51.468 79.6596L62.6383 112.638C64.234 117.957 62.1063 125.404 56.7872 128.064L9.97873 156.787C-0.659575 167.426 -0.659575 183.915 9.97873 194.553C20.617 205.192 37.1063 205.192 47.7446 194.553L75.9362 147.213Z" stroke="#131F35" stroke-width="3"/>
</g>
</svg>
