<svg width="17" height="32" viewBox="0 0 17 32" fill="none" xmlns="http://www.w3.org/2000/svg">
<path d="M1.59286 31C1.44089 31 1.28892 30.9422 1.17296 30.8262C0.941044 30.5947 0.941044 30.2187 1.17296 29.9868L14.4537 16.7049C14.6413 16.5178 14.7441 16.2672 14.7441 15.9997C14.7441 15.7322 14.6409 15.4816 14.4537 15.2944L1.17296 2.01336C0.941044 1.78184 0.941044 1.40546 1.17296 1.17394C1.40488 0.94202 1.78045 0.94202 2.01237 1.17394L15.2931 14.455C15.7047 14.8662 15.9314 15.4148 15.9314 15.9997C15.9314 16.5846 15.7047 17.1332 15.2931 17.5448L2.01237 30.8266C1.89681 30.9418 1.74483 31 1.59286 31Z" fill="#131F35" stroke="#131F35"/>
</svg>
