<svg width="26" height="28" viewBox="0 0 26 28" fill="none" xmlns="http://www.w3.org/2000/svg">
<path d="M17.8701 11.0894C18.3768 10.3408 18.666 7.02978 18.666 6.10413C18.666 3.28527 15.9792 1 12.6657 1C9.35285 1 6.66602 3.28527 6.66602 6.10413C6.66602 7.0569 6.97267 10.3911 7.50656 11.154C8.55289 12.6492 10.4722 14 12.6651 14C14.8917 14 16.8342 12.6202 17.8701 11.0894Z" stroke="#131F35" stroke-width="1.5" stroke-linejoin="round"/>
<path d="M16.9189 16.5054C14.5142 17.645 13.3839 17.9226 12.8713 17.9721C12.3582 17.9226 11.229 17.645 8.82323 16.5054C4.97428 14.6839 0.793945 21.9732 0.793945 26.9998C2.46158 26.9998 10.6484 26.9998 12.8055 26.9998C12.8511 26.9998 12.8984 26.9998 12.9383 26.9998C15.0954 26.9998 23.2828 26.9998 24.9499 26.9998C24.9488 21.9732 20.7678 14.6839 16.9189 16.5054Z" stroke="#131F35" stroke-width="1.5" stroke-linejoin="round"/>
</svg>
