<svg width="35" height="20" viewBox="0 0 35 20" fill="none" xmlns="http://www.w3.org/2000/svg">
<mask id="path-1-inside-1" fill="white">
<path d="M18.9544 19.7726C18.9544 19.7726 19.6362 19.7725 19.9089 19.3635C20.1817 19.0907 20.1817 18.5453 20.1817 18.5453C20.1817 18.5453 20.1817 15.818 21.4089 15.4089C22.6362 14.9998 24.2726 17.9998 25.9089 19.0907C27.1362 19.9089 28.2271 19.7726 28.2271 19.7726H32.7271C32.7271 19.7726 35.0453 19.6362 33.9544 17.7271C33.8181 17.5907 33.2726 16.3635 30.5453 13.9089C27.6817 11.318 28.0908 11.7271 31.4998 7.22709C33.5453 4.49982 34.3635 2.86346 34.2271 2.04528C33.9544 1.36346 32.4544 1.49982 32.4544 1.49982H27.2726C27.2726 1.49982 26.8635 1.49982 26.5907 1.63618C26.318 1.77255 26.1817 2.18164 26.1817 2.18164C26.1817 2.18164 25.3635 4.36346 24.2726 6.13619C21.9544 9.95437 21.1362 10.0907 20.7271 9.95437C19.9089 9.40891 20.0453 7.77255 20.0453 6.54528C20.0453 2.86346 20.5908 1.36345 18.9544 0.954364C18.409 0.818 17.9998 0.681641 16.4998 0.681641C14.7271 0.681641 13.0907 0.68164 12.2726 1.09073C11.7271 1.36346 11.1817 2.04528 11.4544 2.04528C11.7271 2.04528 12.5453 2.18164 12.9544 2.7271C13.4998 3.40891 13.4999 5.04527 13.4999 5.04527C13.4999 5.04527 13.7726 9.40891 12.8181 9.95437C12.1362 10.3635 11.1817 9.54528 9.13622 6.13619C8.04531 4.36346 7.36351 2.45437 7.36351 2.45437C7.36351 2.45437 7.22712 2.04527 6.95439 1.90891C6.68166 1.63618 6.1362 1.63618 6.1362 1.63618H1.22714C1.22714 1.63618 0.545307 1.63618 0.272579 1.90891C-0.000147969 2.18164 0.272579 2.7271 0.272579 2.7271C0.272579 2.7271 4.09076 11.4544 8.4544 15.9544C12.4089 20.0453 16.909 19.7726 16.909 19.7726H18.9544Z"/>
</mask>
<path d="M18.9544 19.7726C18.9544 19.7726 19.6362 19.7725 19.9089 19.3635C20.1817 19.0907 20.1817 18.5453 20.1817 18.5453C20.1817 18.5453 20.1817 15.818 21.4089 15.4089C22.6362 14.9998 24.2726 17.9998 25.9089 19.0907C27.1362 19.9089 28.2271 19.7726 28.2271 19.7726H32.7271C32.7271 19.7726 35.0453 19.6362 33.9544 17.7271C33.8181 17.5907 33.2726 16.3635 30.5453 13.9089C27.6817 11.318 28.0908 11.7271 31.4998 7.22709C33.5453 4.49982 34.3635 2.86346 34.2271 2.04528C33.9544 1.36346 32.4544 1.49982 32.4544 1.49982H27.2726C27.2726 1.49982 26.8635 1.49982 26.5907 1.63618C26.318 1.77255 26.1817 2.18164 26.1817 2.18164C26.1817 2.18164 25.3635 4.36346 24.2726 6.13619C21.9544 9.95437 21.1362 10.0907 20.7271 9.95437C19.9089 9.40891 20.0453 7.77255 20.0453 6.54528C20.0453 2.86346 20.5908 1.36345 18.9544 0.954364C18.409 0.818 17.9998 0.681641 16.4998 0.681641C14.7271 0.681641 13.0907 0.68164 12.2726 1.09073C11.7271 1.36346 11.1817 2.04528 11.4544 2.04528C11.7271 2.04528 12.5453 2.18164 12.9544 2.7271C13.4998 3.40891 13.4999 5.04527 13.4999 5.04527C13.4999 5.04527 13.7726 9.40891 12.8181 9.95437C12.1362 10.3635 11.1817 9.54528 9.13622 6.13619C8.04531 4.36346 7.36351 2.45437 7.36351 2.45437C7.36351 2.45437 7.22712 2.04527 6.95439 1.90891C6.68166 1.63618 6.1362 1.63618 6.1362 1.63618H1.22714C1.22714 1.63618 0.545307 1.63618 0.272579 1.90891C-0.000147969 2.18164 0.272579 2.7271 0.272579 2.7271C0.272579 2.7271 4.09076 11.4544 8.4544 15.9544C12.4089 20.0453 16.909 19.7726 16.909 19.7726H18.9544Z" fill="#FCFCFC"/>
<path d="M18.9544 19.7726V20.7726H18.9544L18.9544 19.7726ZM19.9089 19.3635L19.2018 18.6563L19.1318 18.7264L19.0769 18.8088L19.9089 19.3635ZM20.1817 18.5453L21.1817 18.5453V18.5453L20.1817 18.5453ZM25.9089 19.0907L26.4636 18.2587L25.9089 19.0907ZM28.2271 19.7726V18.7726H28.1649L28.1031 18.7803L28.2271 19.7726ZM32.7271 19.7726V20.7726H32.7565L32.7858 20.7708L32.7271 19.7726ZM33.9544 17.7271L34.8227 17.231L34.7562 17.1147L34.6615 17.02L33.9544 17.7271ZM30.5453 13.9089L29.8744 14.6504L29.8764 14.6522L30.5453 13.9089ZM31.4998 7.22709L32.2969 7.83096L32.2998 7.82709L31.4998 7.22709ZM34.2271 2.04528L35.2135 1.88088L35.1957 1.77425L35.1556 1.67389L34.2271 2.04528ZM32.4544 1.49982V2.49982H32.4998L32.5449 2.49571L32.4544 1.49982ZM27.2726 1.49982L27.2726 2.49982H27.2726V1.49982ZM26.1817 2.18164L27.118 2.53276L27.1245 2.51541L27.1304 2.49783L26.1817 2.18164ZM24.2726 6.13619L23.4209 5.61208L23.4178 5.61721L24.2726 6.13619ZM20.7271 9.95437L20.1724 10.7864L20.2839 10.8607L20.4109 10.9031L20.7271 9.95437ZM12.9544 2.7271L12.1544 3.3271L12.1638 3.33959L12.1735 3.35179L12.9544 2.7271ZM13.4999 5.04527L12.4999 5.04529V5.0765L12.5018 5.10765L13.4999 5.04527ZM12.8181 9.95437L12.3219 9.08612L12.3127 9.0914L12.3036 9.09687L12.8181 9.95437ZM9.13622 6.13619L9.99376 5.62166L9.98787 5.61209L9.13622 6.13619ZM7.36351 2.45437L6.41484 2.77065L6.41819 2.78071L6.42176 2.7907L7.36351 2.45437ZM6.95439 1.90891L6.24728 2.61602L6.36203 2.73076L6.50718 2.80334L6.95439 1.90891ZM6.1362 1.63618L6.1362 0.636182H6.1362V1.63618ZM1.22714 1.63618V0.636182H1.22714L1.22714 1.63618ZM0.272579 2.7271L1.18874 2.32628L1.17847 2.3028L1.16701 2.27988L0.272579 2.7271ZM8.4544 15.9544L9.17339 15.2593L9.1723 15.2582L8.4544 15.9544ZM16.909 19.7726V18.7726H16.8787L16.8485 18.7744L16.909 19.7726ZM18.9544 19.7726C18.9544 20.7726 18.9547 20.7726 18.955 20.7726C18.9551 20.7725 18.9554 20.7725 18.9556 20.7725C18.956 20.7725 18.9565 20.7725 18.9569 20.7725C18.9578 20.7725 18.9587 20.7725 18.9597 20.7725C18.9616 20.7725 18.9637 20.7725 18.966 20.7725C18.9706 20.7724 18.9759 20.7724 18.9819 20.7723C18.9938 20.772 19.0086 20.7716 19.0259 20.7709C19.0603 20.7694 19.1054 20.7668 19.1586 20.7618C19.263 20.752 19.4087 20.7324 19.5719 20.6916C19.8589 20.6198 20.3968 20.4344 20.741 19.9182L19.0769 18.8088C19.1483 18.7016 19.209 18.7207 19.0869 18.7513C19.0456 18.7616 19.0037 18.7675 18.9719 18.7705C18.9569 18.7719 18.9465 18.7725 18.9426 18.7726C18.9407 18.7727 18.9406 18.7727 18.9424 18.7726C18.9433 18.7726 18.9448 18.7726 18.9468 18.7726C18.9478 18.7726 18.9489 18.7726 18.9502 18.7726C18.9508 18.7726 18.9515 18.7726 18.9522 18.7726C18.9525 18.7726 18.9529 18.7726 18.9533 18.7726C18.9534 18.7726 18.9537 18.7726 18.9538 18.7726C18.9541 18.7726 18.9544 18.7726 18.9544 19.7726ZM20.616 20.0706C20.9649 19.7217 21.0823 19.2774 21.1282 19.0482C21.1549 18.9145 21.1679 18.7966 21.1745 18.7115C21.1778 18.6683 21.1796 18.6317 21.1806 18.6037C21.181 18.5897 21.1813 18.5777 21.1815 18.5679C21.1816 18.563 21.1816 18.5586 21.1816 18.5549C21.1817 18.553 21.1817 18.5513 21.1817 18.5497C21.1817 18.5489 21.1817 18.5481 21.1817 18.5474C21.1817 18.547 21.1817 18.5467 21.1817 18.5463C21.1817 18.5461 21.1817 18.5459 21.1817 18.5458C21.1817 18.5456 21.1817 18.5453 20.1817 18.5453C19.1817 18.5452 19.1817 18.545 19.1817 18.5448C19.1817 18.5447 19.1817 18.5444 19.1817 18.5443C19.1817 18.544 19.1817 18.5437 19.1817 18.5434C19.1817 18.5428 19.1817 18.5422 19.1817 18.5417C19.1817 18.5406 19.1817 18.5397 19.1817 18.5388C19.1817 18.5371 19.1817 18.5359 19.1817 18.535C19.1818 18.5334 19.1818 18.5333 19.1817 18.5348C19.1816 18.5377 19.1813 18.5459 19.1804 18.558C19.1784 18.5838 19.1743 18.6192 19.167 18.656C19.1593 18.6946 19.1512 18.718 19.1475 18.7266C19.1429 18.7373 19.1548 18.7034 19.2018 18.6563L20.616 20.0706ZM20.1817 18.5453C21.1817 18.5453 21.1817 18.5455 21.1817 18.5457C21.1817 18.5457 21.1817 18.5459 21.1817 18.546C21.1817 18.5462 21.1817 18.5464 21.1817 18.5465C21.1817 18.5468 21.1817 18.5469 21.1817 18.5469C21.1817 18.5468 21.1817 18.546 21.1817 18.5447C21.1817 18.542 21.1818 18.5369 21.1819 18.5295C21.1821 18.5147 21.1826 18.4908 21.1836 18.4591C21.1856 18.3955 21.1897 18.3012 21.1982 18.1857C21.2153 17.9518 21.2491 17.6449 21.3139 17.3354C21.3804 17.0174 21.4698 16.7455 21.5753 16.5542C21.6831 16.3584 21.7486 16.3498 21.7252 16.3576L21.0927 14.4602C20.4556 14.6726 20.0609 15.1582 19.8236 15.5889C19.5839 16.024 19.4431 16.5107 19.3563 16.9256C19.2677 17.349 19.2248 17.7496 19.2035 18.0398C19.1928 18.1863 19.1874 18.3083 19.1846 18.3955C19.1832 18.4392 19.1825 18.4743 19.1821 18.4996C19.1819 18.5123 19.1818 18.5225 19.1817 18.5302C19.1817 18.534 19.1817 18.5372 19.1817 18.5397C19.1817 18.541 19.1817 18.5421 19.1817 18.543C19.1817 18.5435 19.1817 18.5439 19.1817 18.5443C19.1817 18.5445 19.1817 18.5447 19.1817 18.5448C19.1817 18.545 19.1817 18.5453 20.1817 18.5453ZM21.7252 16.3576C21.5798 16.4061 21.5668 16.2998 21.8347 16.4833C22.0839 16.654 22.3885 16.9494 22.769 17.3637C23.0993 17.7234 23.571 18.2695 23.9595 18.6827C24.3751 19.1246 24.8473 19.5848 25.3542 19.9228L26.4636 18.2587C26.1524 18.0512 25.8064 17.7273 25.4166 17.3127C24.9997 16.8694 24.6787 16.4864 24.2421 16.0109C23.8555 15.59 23.4186 15.144 22.9648 14.8331C22.5295 14.535 21.8518 14.2072 21.0927 14.4602L21.7252 16.3576ZM25.3542 19.9228C26.1061 20.424 26.8262 20.6389 27.3703 20.7259C27.6416 20.7693 27.8696 20.7811 28.0375 20.7811C28.1216 20.7811 28.191 20.7781 28.2438 20.7746C28.2702 20.7729 28.2926 20.771 28.3105 20.7693C28.3195 20.7684 28.3274 20.7676 28.3342 20.7668C28.3376 20.7664 28.3407 20.7661 28.3435 20.7658C28.3449 20.7656 28.3463 20.7654 28.3475 20.7653C28.3482 20.7652 28.3488 20.7651 28.3494 20.765C28.3497 20.765 28.3501 20.765 28.3503 20.7649C28.3507 20.7649 28.3512 20.7648 28.2271 19.7726C28.1031 18.7803 28.1035 18.7802 28.1039 18.7802C28.1041 18.7802 28.1045 18.7801 28.1047 18.7801C28.1053 18.78 28.1058 18.7799 28.1063 18.7799C28.1073 18.7798 28.1083 18.7796 28.1091 18.7795C28.1109 18.7793 28.1125 18.7792 28.1137 18.779C28.1163 18.7787 28.1179 18.7786 28.1186 18.7785C28.12 18.7784 28.1177 18.7786 28.1119 18.779C28.1002 18.7798 28.0749 18.7811 28.0375 18.7811C27.9625 18.7811 27.841 18.7758 27.6862 18.751C27.378 18.7017 26.9391 18.5756 26.4636 18.2587L25.3542 19.9228ZM28.2271 20.7726H32.7271V18.7726H28.2271V20.7726ZM32.7271 19.7726C32.7858 20.7708 32.7863 20.7708 32.7867 20.7708C32.7868 20.7708 32.7873 20.7707 32.7876 20.7707C32.7882 20.7707 32.7889 20.7706 32.7896 20.7706C32.791 20.7705 32.7925 20.7704 32.7942 20.7703C32.7976 20.7701 32.8016 20.7698 32.8062 20.7695C32.8153 20.7688 32.8267 20.7679 32.8402 20.7667C32.8671 20.7644 32.9027 20.7608 32.9454 20.7556C33.0303 20.7453 33.1463 20.7281 33.2804 20.6995C33.5359 20.6452 33.9156 20.5379 34.2739 20.3174C34.6411 20.0915 35.0558 19.6992 35.198 19.0737C35.3373 18.4609 35.1666 17.8328 34.8227 17.231L33.0862 18.2232C33.2877 18.5759 33.2363 18.6808 33.2477 18.6305C33.2621 18.5675 33.3018 18.5673 33.2258 18.6141C33.1409 18.6663 33.0093 18.7124 32.8642 18.7433C32.798 18.7574 32.7414 18.7657 32.7037 18.7703C32.6852 18.7725 32.672 18.7738 32.6656 18.7744C32.6623 18.7747 32.6609 18.7748 32.6613 18.7747C32.6615 18.7747 32.6621 18.7747 32.6633 18.7746C32.6639 18.7745 32.6646 18.7745 32.6655 18.7745C32.6659 18.7744 32.6663 18.7744 32.6668 18.7744C32.6671 18.7744 32.6675 18.7743 32.6676 18.7743C32.668 18.7743 32.6684 18.7743 32.7271 19.7726ZM34.6615 17.02C34.7356 17.094 34.7731 17.1629 34.72 17.0809C34.7011 17.0517 34.638 16.9523 34.5845 16.8706C34.459 16.6788 34.2763 16.4121 34.0085 16.0704C33.4741 15.3886 32.6151 14.4264 31.2143 13.1656L29.8764 14.6522C31.2028 15.846 31.9802 16.7247 32.4344 17.3042C32.6609 17.5932 32.8106 17.8123 32.9109 17.9657C32.9704 18.0566 32.9936 18.0946 33.0413 18.1682C33.0548 18.189 33.1392 18.3261 33.2473 18.4342L34.6615 17.02ZM31.2162 13.1674C30.4682 12.4906 30.0386 12.0993 29.7936 11.7872C29.595 11.5342 29.6466 11.5003 29.6475 11.4963C29.6804 11.3451 29.8251 11.0558 30.3117 10.4026C30.8042 9.74161 31.3942 9.02262 32.2969 7.83095L30.7028 6.62324C29.901 7.68157 29.1614 8.59894 28.7079 9.20781C28.2485 9.82447 27.8307 10.4386 27.6931 11.0715C27.5236 11.8516 27.7968 12.4825 28.2204 13.0221C28.5975 13.5026 29.1906 14.0318 29.8744 14.6504L31.2162 13.1674ZM32.2998 7.82709C33.3363 6.44519 34.0891 5.30426 34.5689 4.38163C34.809 3.91988 34.9932 3.48921 35.1072 3.09304C35.2188 2.70511 35.2814 2.28801 35.2135 1.88088L33.2407 2.20968C33.2402 2.20645 33.2444 2.22954 33.2383 2.2878C33.2323 2.34584 33.2172 2.42869 33.1851 2.54012C33.1201 2.76611 32.9975 3.0684 32.7944 3.45892C32.3878 4.24084 31.7089 5.28172 30.6998 6.62709L32.2998 7.82709ZM35.1556 1.67389C34.9585 1.18123 34.5665 0.909488 34.2562 0.7654C33.9456 0.6212 33.6186 0.556596 33.3625 0.524589C33.0977 0.491486 32.8526 0.486713 32.6783 0.489275C32.5897 0.490579 32.5156 0.49385 32.4618 0.496953C32.4348 0.498509 32.4127 0.500036 32.3962 0.501279C32.388 0.5019 32.3811 0.502453 32.3757 0.502904C32.373 0.50313 32.3706 0.503331 32.3686 0.503502C32.3677 0.503588 32.3668 0.503667 32.366 0.503738C32.3656 0.503773 32.3652 0.503807 32.3648 0.503838C32.3647 0.503854 32.3644 0.503876 32.3643 0.503884C32.3641 0.503906 32.3639 0.503927 32.4544 1.49982C32.5449 2.49571 32.5447 2.49573 32.5445 2.49575C32.5444 2.49576 32.5442 2.49578 32.5441 2.49579C32.5438 2.49581 32.5436 2.49583 32.5434 2.49585C32.5429 2.49589 32.5426 2.49592 32.5423 2.49595C32.5418 2.49599 32.5416 2.49601 32.5418 2.496C32.542 2.49597 32.5436 2.49584 32.5464 2.49563C32.552 2.49521 32.5624 2.49447 32.577 2.49363C32.6063 2.49194 32.6515 2.48989 32.7077 2.48906C32.8233 2.48736 32.9702 2.49111 33.1145 2.50914C33.2675 2.52827 33.3666 2.55742 33.414 2.57941C33.4616 2.60152 33.3593 2.56841 33.2986 2.41667L35.1556 1.67389ZM32.4544 0.49982H27.2726V2.49982H32.4544V0.49982ZM27.2726 1.49982C27.2726 0.49982 27.2724 0.49982 27.2722 0.49982C27.2722 0.49982 27.272 0.499821 27.2719 0.499821C27.2717 0.499821 27.2714 0.499821 27.2712 0.499821C27.2707 0.499822 27.2702 0.499823 27.2696 0.499824C27.2686 0.499827 27.2674 0.499832 27.2661 0.499839C27.2635 0.499852 27.2605 0.499875 27.257 0.499913C27.2502 0.499987 27.2417 0.500118 27.2317 0.500345C27.2118 0.500797 27.1857 0.501638 27.1544 0.503198C27.0927 0.506285 27.0077 0.512359 26.9099 0.524586C26.7362 0.546294 26.4321 0.597469 26.1435 0.741755L27.038 2.53061C27.0221 2.53853 27.0589 2.52153 27.158 2.50914C27.1965 2.50433 27.2308 2.50188 27.2543 2.5007C27.2657 2.50013 27.2736 2.49991 27.2772 2.49983C27.2789 2.49979 27.2795 2.49979 27.2788 2.49979C27.2784 2.4998 27.2777 2.4998 27.2767 2.49981C27.2762 2.49981 27.2756 2.49982 27.2749 2.49982C27.2745 2.49982 27.2742 2.49982 27.2738 2.49982C27.2736 2.49982 27.2734 2.49982 27.2732 2.49982C27.2731 2.49982 27.2729 2.49982 27.2729 2.49982C27.2727 2.49982 27.2726 2.49982 27.2726 1.49982ZM26.1435 0.741755C25.7383 0.944367 25.5136 1.29264 25.4157 1.46393C25.357 1.56655 25.3142 1.65965 25.2856 1.72756C25.271 1.76215 25.2595 1.79187 25.2508 1.81509C25.2465 1.82675 25.2428 1.83688 25.2399 1.84531C25.2384 1.84953 25.2371 1.85333 25.2359 1.85669C25.2354 1.85837 25.2348 1.85994 25.2343 1.8614C25.2341 1.86213 25.2338 1.86283 25.2336 1.86351C25.2335 1.86385 25.2334 1.86418 25.2333 1.8645C25.2332 1.86466 25.2332 1.8649 25.2331 1.86498C25.2331 1.86521 25.233 1.86545 26.1817 2.18164C27.1304 2.49783 27.1303 2.49806 27.1302 2.49829C27.1302 2.49836 27.1301 2.49859 27.1301 2.49874C27.13 2.49904 27.1299 2.49933 27.1298 2.49962C27.1296 2.50019 27.1294 2.50075 27.1292 2.50128C27.1288 2.50235 27.1285 2.50333 27.1282 2.50423C27.1276 2.50604 27.1271 2.50752 27.1267 2.50871C27.1258 2.51108 27.1254 2.51229 27.1253 2.51249C27.1252 2.51281 27.1264 2.50951 27.1289 2.50361C27.1344 2.49056 27.1427 2.47286 27.1522 2.45616C27.1627 2.43777 27.1665 2.43505 27.1592 2.44329C27.1533 2.44989 27.1155 2.49182 27.038 2.53061L26.1435 0.741755ZM26.1817 2.18164C25.2453 1.83052 25.2454 1.83045 25.2454 1.83039C25.2454 1.83038 25.2454 1.83032 25.2454 1.8303C25.2454 1.83027 25.2454 1.83026 25.2454 1.83029C25.2454 1.83034 25.2453 1.83053 25.2452 1.83084C25.245 1.83147 25.2445 1.83262 25.2439 1.83428C25.2427 1.8376 25.2406 1.84296 25.2378 1.85027C25.2323 1.86489 25.2237 1.88734 25.2122 1.91698C25.1891 1.97627 25.1546 2.06426 25.1095 2.17593C25.0193 2.39946 24.8874 2.71678 24.7224 3.088C24.3901 3.83577 23.9334 4.77936 23.4209 5.61209L25.1242 6.66028C25.7027 5.72028 26.2006 4.6866 26.55 3.90028C26.726 3.50445 26.8668 3.16552 26.9641 2.92457C27.0128 2.80399 27.0506 2.70767 27.0766 2.64072C27.0896 2.60724 27.0996 2.58108 27.1066 2.56288C27.1101 2.55378 27.1128 2.54667 27.1147 2.54162C27.1156 2.5391 27.1164 2.53709 27.1169 2.53561C27.1172 2.53487 27.1174 2.53426 27.1176 2.53379C27.1177 2.53355 27.1178 2.53334 27.1178 2.53317C27.1179 2.53309 27.1179 2.53298 27.1179 2.53294C27.118 2.53285 27.118 2.53276 26.1817 2.18164ZM23.4178 5.61721C22.2692 7.50894 21.5461 8.39423 21.1124 8.78724C20.9 8.97978 20.8114 9.00339 20.8294 8.99776C20.8837 8.98079 20.9722 8.98196 21.0434 9.00568L20.4109 10.9031C20.6866 10.995 21.0308 11.0302 21.426 10.9067C21.7849 10.7945 22.1225 10.571 22.4555 10.2692C23.1127 9.67359 23.9577 8.58162 25.1274 6.65516L23.4178 5.61721ZM21.2818 9.12232C21.2778 9.11965 21.1386 8.9992 21.0736 8.39802C21.0131 7.83879 21.0453 7.23077 21.0453 6.54528H19.0453C19.0453 7.08705 19.0093 7.91086 19.0852 8.61299C19.1566 9.27317 19.3582 10.2436 20.1724 10.7864L21.2818 9.12232ZM21.0453 6.54528C21.0453 5.64782 21.0785 4.88417 21.1042 4.21439C21.1293 3.56329 21.1499 2.95739 21.1106 2.44586C21.0715 1.93775 20.9661 1.38308 20.6344 0.909315C20.2792 0.401838 19.7661 0.126509 19.197 -0.0157788L18.7119 1.92451C18.9609 1.98676 18.9933 2.05234 18.996 2.05623C19.0223 2.09383 19.0873 2.22098 19.1164 2.59924C19.1453 2.97407 19.1318 3.45908 19.1057 4.13752C19.0803 4.79729 19.0453 5.60183 19.0453 6.54528H21.0453ZM19.197 -0.0157788C18.948 -0.0780053 18.6483 -0.162828 18.2265 -0.223084C17.8059 -0.283169 17.2779 -0.318359 16.4998 -0.318359V1.68164C17.2217 1.68164 17.6484 1.71463 17.9437 1.75682C18.2378 1.79883 18.4153 1.85037 18.7119 1.92451L19.197 -0.0157788ZM16.4998 -0.318359C15.6234 -0.318359 14.7334 -0.318852 13.9587 -0.264799C13.2146 -0.212889 12.4261 -0.104085 11.8253 0.196303L12.7198 1.98516C12.9372 1.87646 13.376 1.78071 14.0978 1.73035C14.789 1.68213 15.6035 1.68164 16.4998 1.68164V-0.318359ZM11.8253 0.196303C11.4044 0.406783 11.0275 0.74321 10.7884 1.03011C10.684 1.15541 10.5181 1.37334 10.436 1.63625C10.4027 1.74294 10.303 2.1005 10.5045 2.48224C10.7581 2.96257 11.2292 3.04528 11.4544 3.04528V1.04528C11.6114 1.04528 12.04 1.10668 12.2733 1.54866C12.4545 1.89204 12.357 2.1942 12.345 2.23272C12.3054 2.35926 12.2589 2.38968 12.3249 2.31044C12.4267 2.18825 12.5953 2.04741 12.7198 1.98516L11.8253 0.196303ZM11.4544 3.04528C11.4519 3.04528 11.495 3.04628 11.5735 3.06006C11.6475 3.07304 11.7339 3.09408 11.8204 3.12463C12.01 3.19154 12.1132 3.27217 12.1544 3.3271L13.7544 2.1271C13.3865 1.63656 12.876 1.37628 12.4861 1.23865C12.0946 1.10048 11.7095 1.04528 11.4544 1.04528V3.04528ZM12.1735 3.35179C12.1986 3.38319 12.2549 3.47909 12.314 3.67105C12.3696 3.85206 12.4114 4.06384 12.4411 4.27852C12.4703 4.49038 12.4852 4.68683 12.4927 4.83084C12.4964 4.90221 12.4982 4.95914 12.4991 4.99676C12.4995 5.01554 12.4997 5.02939 12.4998 5.03771C12.4998 5.04186 12.4999 5.04463 12.4999 5.04592C12.4999 5.04656 12.4999 5.04684 12.4999 5.04674C12.4999 5.04669 12.4999 5.04655 12.4999 5.04631C12.4999 5.04618 12.4999 5.04604 12.4999 5.04587C12.4999 5.04579 12.4999 5.04564 12.4999 5.0456C12.4999 5.04545 12.4999 5.04529 13.4999 5.04527C14.4999 5.04525 14.4999 5.04508 14.4999 5.04491C14.4999 5.04484 14.4999 5.04466 14.4999 5.04452C14.4999 5.04426 14.4999 5.04396 14.4999 5.04364C14.4999 5.04301 14.4999 5.04227 14.4999 5.04143C14.4999 5.03975 14.4999 5.03767 14.4998 5.0352C14.4998 5.03026 14.4998 5.02375 14.4997 5.01575C14.4995 4.99977 14.4992 4.9778 14.4985 4.95049C14.4973 4.89596 14.4948 4.81973 14.49 4.72704C14.4804 4.54292 14.4613 4.28767 14.4223 4.00521C14.3837 3.72557 14.3232 3.40042 14.2255 3.08286C14.1312 2.77623 13.9829 2.41191 13.7353 2.1024L12.1735 3.35179ZM13.4999 5.04527C12.5018 5.10765 12.5018 5.10756 12.5018 5.10748C12.5018 5.10748 12.5018 5.10742 12.5018 5.10741C12.5018 5.10739 12.5018 5.10744 12.5018 5.10756C12.5018 5.10779 12.5019 5.10828 12.5019 5.10903C12.502 5.11053 12.5021 5.11304 12.5023 5.11656C12.5028 5.12359 12.5034 5.13459 12.5042 5.14931C12.5058 5.17876 12.5081 5.22307 12.5108 5.28025C12.5161 5.3947 12.5228 5.56024 12.5279 5.76112C12.5382 6.16467 12.5421 6.70245 12.5179 7.2512C12.4933 7.80858 12.4412 8.33749 12.3514 8.73892C12.3063 8.94055 12.2597 9.07267 12.2231 9.14744C12.1797 9.23618 12.1924 9.16013 12.3219 9.08612L13.3142 10.8226C13.6823 10.6122 13.8953 10.2805 14.0197 10.0262C14.1509 9.75793 14.2396 9.45966 14.3032 9.1755C14.4307 8.60533 14.4894 7.94107 14.5159 7.33935C14.5429 6.72901 14.5383 6.14179 14.5272 5.71011C14.5217 5.49337 14.5145 5.31375 14.5086 5.18743C14.5057 5.12423 14.5031 5.07425 14.5012 5.03952C14.5002 5.02214 14.4995 5.00857 14.4989 4.99906C14.4986 4.9943 14.4984 4.99055 14.4982 4.98785C14.4981 4.98649 14.4981 4.9854 14.498 4.98458C14.498 4.98416 14.498 4.98382 14.498 4.98354C14.498 4.9834 14.4979 4.98323 14.4979 4.98316C14.4979 4.98302 14.4979 4.98289 13.4999 5.04527ZM12.3036 9.09687C12.3879 9.04626 12.5044 9.04288 12.559 9.06108C12.5639 9.0627 12.5343 9.05343 12.4674 9.00651C12.401 8.95991 12.3109 8.88533 12.1956 8.76999C11.7109 8.28526 11.0145 7.32306 9.99371 5.62169L8.27872 6.65068C9.30336 8.35841 10.107 9.50984 10.7814 10.1842C11.1172 10.52 11.4953 10.8147 11.9265 10.9584C12.4158 11.1215 12.9073 11.067 13.3325 10.8119L12.3036 9.09687ZM9.98787 5.61209C9.47482 4.77838 9.05242 3.90277 8.75642 3.22852C8.6092 2.89318 8.49502 2.61173 8.41819 2.41561C8.3798 2.31763 8.35083 2.24118 8.33182 2.19022C8.32231 2.16474 8.3153 2.14566 8.31084 2.13346C8.30862 2.12736 8.30703 2.12298 8.3061 2.12039C8.30563 2.1191 8.30533 2.11825 8.30518 2.11785C8.30511 2.11765 8.30508 2.11757 8.30509 2.1176C8.3051 2.11762 8.30511 2.11766 8.30514 2.11773C8.30515 2.11777 8.30518 2.11785 8.30519 2.11786C8.30522 2.11795 8.30525 2.11804 7.36351 2.45437C6.42176 2.7907 6.4218 2.7908 6.42184 2.79091C6.42186 2.79096 6.4219 2.79108 6.42193 2.79117C6.422 2.79136 6.42208 2.79158 6.42217 2.79183C6.42234 2.79232 6.42256 2.79294 6.42282 2.79366C6.42335 2.79512 6.42404 2.79703 6.42489 2.7994C6.4266 2.80414 6.42898 2.8107 6.43201 2.81902C6.43808 2.83565 6.44678 2.85931 6.45805 2.8895C6.48058 2.94987 6.5134 3.03642 6.55598 3.14512C6.64108 3.36234 6.76553 3.66896 6.92512 4.03249C7.24274 4.75597 7.7067 5.72126 8.28456 6.66028L9.98787 5.61209ZM7.36351 2.45437C8.31217 2.13809 8.31209 2.13785 8.31202 2.13762C8.31199 2.13754 8.31191 2.1373 8.31186 2.13714C8.31175 2.13682 8.31164 2.13649 8.31152 2.13615C8.3113 2.13548 8.31106 2.13477 8.31081 2.13404C8.31032 2.13258 8.30979 2.13101 8.30921 2.12933C8.30806 2.12597 8.30675 2.12217 8.30526 2.11795C8.3023 2.10953 8.29865 2.09939 8.29432 2.08774C8.28568 2.06452 8.27412 2.0348 8.25955 2.00021C8.23095 1.93231 8.18809 1.83922 8.12944 1.7366C8.03156 1.56532 7.8068 1.21708 7.4016 1.01448L6.50718 2.80334C6.42962 2.76456 6.39183 2.72263 6.38598 2.71605C6.37866 2.70781 6.38248 2.71055 6.393 2.72895C6.40254 2.74565 6.41082 2.76336 6.41632 2.77642C6.4188 2.78231 6.42002 2.78562 6.41991 2.7853C6.41983 2.7851 6.41938 2.78389 6.41855 2.78152C6.41813 2.78034 6.41762 2.77885 6.417 2.77705C6.41669 2.77614 6.41636 2.77516 6.416 2.7741C6.41582 2.77356 6.41563 2.77301 6.41544 2.77243C6.41534 2.77215 6.41524 2.77185 6.41514 2.77156C6.41509 2.77141 6.41502 2.77118 6.41499 2.7711C6.41492 2.77088 6.41484 2.77065 7.36351 2.45437ZM7.6615 1.2018C7.31259 0.852895 6.86829 0.735522 6.63914 0.689693C6.50539 0.662944 6.38745 0.649933 6.30239 0.643389C6.25917 0.640064 6.22263 0.638274 6.19463 0.637309C6.18059 0.636824 6.16857 0.636543 6.15878 0.636383C6.15389 0.636303 6.14954 0.636252 6.14577 0.636222C6.14389 0.636207 6.14215 0.636197 6.14055 0.636191C6.13975 0.636188 6.13899 0.636185 6.13827 0.636184C6.1379 0.636183 6.13755 0.636183 6.13721 0.636182C6.13703 0.636182 6.13678 0.636182 6.1367 0.636182C6.13645 0.636182 6.1362 0.636182 6.1362 1.63618C6.1362 2.63618 6.13595 2.63618 6.13571 2.63618C6.13564 2.63618 6.1354 2.63618 6.13524 2.63618C6.13493 2.63618 6.13463 2.63618 6.13433 2.63618C6.13374 2.63618 6.13318 2.63618 6.13264 2.63618C6.13157 2.63617 6.13062 2.63617 6.12977 2.63616C6.12808 2.63614 6.12683 2.63613 6.126 2.63611C6.12434 2.63609 6.1243 2.63607 6.12571 2.63612C6.12861 2.63622 6.13681 2.63656 6.14899 2.6375C6.17472 2.63948 6.21019 2.64351 6.24691 2.65085C6.28553 2.65858 6.30896 2.66669 6.31757 2.67039C6.32821 2.67494 6.29433 2.66306 6.24728 2.61602L7.6615 1.2018ZM6.1362 0.636182H1.22714V2.63618H6.1362V0.636182ZM1.22714 1.63618C1.22714 0.636182 1.22694 0.636182 1.22674 0.636182C1.22667 0.636182 1.22647 0.636182 1.22633 0.636182C1.22604 0.636182 1.22575 0.636183 1.22544 0.636183C1.22483 0.636184 1.22418 0.636186 1.22348 0.636188C1.22208 0.636192 1.22051 0.6362 1.21877 0.636211C1.21528 0.636233 1.2111 0.636271 1.20626 0.636335C1.19659 0.636462 1.18426 0.636691 1.16954 0.6371C1.1402 0.637915 1.10088 0.639458 1.05397 0.642391C0.961633 0.648162 0.83244 0.659762 0.687736 0.683879C0.467354 0.720609 -0.0566447 0.823921 -0.434527 1.2018L0.979686 2.61602C0.908796 2.68691 0.857382 2.69902 0.887906 2.68757C0.910266 2.67919 0.953568 2.66716 1.01653 2.65667C1.07638 2.64669 1.13469 2.64125 1.17872 2.6385C1.19999 2.63717 1.21607 2.63658 1.22508 2.63633C1.22954 2.63621 1.23212 2.63617 1.23258 2.63616C1.2328 2.63616 1.23248 2.63616 1.23159 2.63617C1.23114 2.63617 1.23055 2.63618 1.22981 2.63618C1.22944 2.63618 1.22904 2.63618 1.22859 2.63618C1.22837 2.63618 1.22814 2.63618 1.2279 2.63618C1.22777 2.63618 1.22759 2.63618 1.22753 2.63618C1.22734 2.63618 1.22714 2.63618 1.22714 1.63618ZM-0.434527 1.2018C-0.94627 1.71355 -0.858601 2.37476 -0.810274 2.61639C-0.778938 2.77307 -0.733946 2.90603 -0.699119 2.99658C-0.681148 3.04331 -0.664433 3.08247 -0.651117 3.11218C-0.644423 3.12711 -0.638486 3.13988 -0.633552 3.15026C-0.631082 3.15546 -0.628853 3.16007 -0.626895 3.16409C-0.625916 3.16609 -0.625004 3.16795 -0.624162 3.16965C-0.623741 3.17051 -0.623337 3.17132 -0.622952 3.17209C-0.622759 3.17248 -0.62257 3.17286 -0.622387 3.17323C-0.622295 3.17341 -0.62216 3.17368 -0.622114 3.17378C-0.621981 3.17404 -0.621849 3.17431 0.272579 2.7271C1.16701 2.27988 1.16714 2.28014 1.16727 2.2804C1.16731 2.28049 1.16744 2.28074 1.16752 2.28091C1.16769 2.28125 1.16785 2.28157 1.16801 2.2819C1.16833 2.28254 1.16864 2.28316 1.16893 2.28374C1.16951 2.28492 1.17003 2.28599 1.17051 2.28696C1.17145 2.28889 1.17218 2.29041 1.17272 2.29155C1.17379 2.2938 1.17413 2.29459 1.1739 2.29407C1.17337 2.29288 1.17091 2.2873 1.16757 2.27863C1.15979 2.25838 1.15364 2.23793 1.15089 2.22416C1.14711 2.20525 1.15611 2.23273 1.14747 2.29323C1.13742 2.36358 1.09924 2.49646 0.979686 2.61602L-0.434527 1.2018ZM0.272579 2.7271C-0.643578 3.12791 -0.643518 3.12805 -0.643444 3.12822C-0.6434 3.12832 -0.643311 3.12852 -0.643222 3.12873C-0.643046 3.12913 -0.642811 3.12967 -0.642517 3.13033C-0.641931 3.13167 -0.641113 3.13354 -0.640063 3.13592C-0.637965 3.1407 -0.634943 3.14756 -0.631011 3.15645C-0.623147 3.17425 -0.611641 3.2002 -0.596591 3.2339C-0.566494 3.30131 -0.522218 3.39977 -0.464564 3.52609C-0.349269 3.7787 -0.180383 4.14297 0.0356942 4.59349C0.46761 5.49404 1.08933 6.74181 1.84965 8.13285C3.35893 10.8941 5.45678 14.2995 7.7365 16.6505L9.1723 15.2582C7.08838 13.1092 5.09532 9.90095 3.6046 7.17361C2.86492 5.82033 2.25937 4.60504 1.83901 3.72859C1.62895 3.29062 1.46545 2.93792 1.35489 2.69568C1.29962 2.57458 1.2576 2.48114 1.22964 2.41851C1.21566 2.38719 1.20519 2.36359 1.19834 2.34808C1.19492 2.34033 1.1924 2.3346 1.19079 2.33095C1.18999 2.32913 1.18941 2.32782 1.18907 2.32704C1.1889 2.32665 1.18879 2.32639 1.18873 2.32626C1.1887 2.3262 1.1887 2.3262 1.18869 2.32617C1.18871 2.32621 1.18874 2.32628 0.272579 2.7271ZM7.73541 16.6494C9.8583 18.8455 12.1397 19.8801 13.9007 20.3621C14.7793 20.6025 15.5282 20.7056 16.065 20.7481C16.3336 20.7694 16.5499 20.7756 16.7038 20.7763C16.7808 20.7766 16.8422 20.7755 16.8869 20.7742C16.9092 20.7735 16.9274 20.7728 16.9412 20.7722C16.9481 20.7719 16.9539 20.7716 16.9586 20.7713C16.961 20.7712 16.9631 20.7711 16.9649 20.771C16.9658 20.7709 16.9666 20.7709 16.9674 20.7708C16.9678 20.7708 16.9683 20.7708 16.9685 20.7708C16.969 20.7707 16.9695 20.7707 16.909 19.7726C16.8485 18.7744 16.8489 18.7744 16.8493 18.7743C16.8495 18.7743 16.8499 18.7743 16.8501 18.7743C16.8506 18.7743 16.851 18.7742 16.8514 18.7742C16.8521 18.7742 16.8526 18.7741 16.8527 18.7741C16.8531 18.7741 16.8524 18.7742 16.8507 18.7742C16.8472 18.7744 16.8396 18.7747 16.828 18.775C16.8048 18.7757 16.7658 18.7765 16.712 18.7763C16.6043 18.7758 16.4381 18.7714 16.2231 18.7544C15.7925 18.7202 15.1693 18.6357 14.4286 18.433C12.9509 18.0286 11.005 17.1542 9.17339 15.2593L7.73541 16.6494ZM16.909 20.7726H18.9544V18.7726H16.909V20.7726Z" fill="#FCFCFC" mask="url(#path-1-inside-1)"/>
</svg>
