<svg width="32" height="17" viewBox="0 0 32 17" fill="none" xmlns="http://www.w3.org/2000/svg">
<path d="M31 15.3388C31 15.4908 30.9422 15.6427 30.8262 15.7587C30.5947 15.9906 30.2187 15.9906 29.9868 15.7587L16.7049 2.47798C16.5178 2.29039 16.2672 2.18751 15.9997 2.18751C15.7322 2.18751 15.4816 2.29078 15.2944 2.47798L2.01336 15.7587C1.78184 15.9906 1.40546 15.9906 1.17394 15.7587C0.94202 15.5268 0.94202 15.1512 1.17394 14.9193L14.455 1.63857C14.8662 1.22698 15.4148 1.00021 15.9997 1.00021C16.5846 1.00021 17.1332 1.22698 17.5448 1.63857L30.8266 14.9193C30.9418 15.0348 31 15.1868 31 15.3388Z" fill="#FCFCFC" stroke="#FCFCFC"/>
</svg>
