<svg width="12" height="24" viewBox="0 0 12 24" fill="none" xmlns="http://www.w3.org/2000/svg">
<path d="M6.01377 5.03279C4.83675 5.07945 3.84144 4.16342 3.7946 2.98312C3.74785 1.80291 4.66588 0.809687 5.84442 0.762941C7.0243 0.716194 8.01836 1.63348 8.0652 2.8136C8.11185 3.993 7.19168 4.98596 6.01377 5.03279Z" fill="#2A8E9D"/>
<path d="M3.11325 16.9822L4.59108 14.5104C4.56869 13.9445 4.49633 12.1199 4.47377 11.5521C3.0082 12.7261 3.61279 12.2418 2.15663 13.4083C1.76259 13.7239 1.18738 13.66 0.871967 13.2664C0.556466 12.8725 0.62005 12.2974 1.01391 11.9817L3.16098 10.2619L4.30379 9.34638L4.37955 9.17444L4.31615 7.57576C4.28839 6.8777 4.65341 6.25513 5.21411 5.9211C5.46899 5.76922 5.76443 5.67698 6.08172 5.66444C6.08208 5.66444 6.08297 5.66444 6.08414 5.66435C6.61072 5.64295 7.12628 5.77495 7.57871 6.04504C8.21348 6.42394 9.54086 7.22498 10.6455 7.89295C11.297 8.28698 11.5994 9.07119 11.3817 9.80086L10.4946 12.7727C10.349 13.2561 9.83934 13.5295 9.35602 13.3842C8.87278 13.2387 8.59892 12.729 8.74445 12.2456L9.5088 9.70746C9.56763 9.51197 9.48784 9.30125 9.31419 9.19388L7.56564 8.20988C7.39996 8.10859 7.17679 8.17979 7.1064 8.37313C7.05518 8.51373 7.11831 8.67125 7.24602 8.74925L8.91532 9.67092L8.21948 12.0874C8.00365 12.804 8.36474 13.5562 9.03442 13.8481C9.07481 13.8656 9.11655 13.8811 9.15917 13.8953C9.2618 14.0871 9.3081 14.306 9.28088 14.5364L8.90251 17.7585L9.16464 18.7899L9.98567 22.0205C10.1369 22.616 9.76815 23.2077 9.19285 23.3535C8.60528 23.5027 8.00885 23.1474 7.85983 22.5608L6.99428 19.1549L6.90159 18.79L6.72678 18.1022C6.70197 18.0047 6.69078 17.9045 6.69329 17.8043C6.69418 17.7709 6.69651 17.7375 6.70045 17.7043L6.99088 15.2308C6.85431 15.2362 6.91431 15.2337 6.70923 15.2419V15.242L5.21859 17.7351L5.44893 18.79C6.22805 22.358 6.22438 22.1973 6.16912 22.4922C6.0733 23.0042 5.62624 23.3876 5.08972 23.3876C4.58974 23.3876 4.13211 23.0405 4.01937 22.5247L3.48266 20.0669L3.20388 18.79L2.98304 17.7789C2.92367 17.5065 2.97014 17.2215 3.11325 16.9822Z" fill="#2A8E9D"/>
</svg>
