<svg width="20" height="22" viewBox="0 0 20 22" fill="none" xmlns="http://www.w3.org/2000/svg">
<path d="M19.103 0.626423V21.3736C19.103 21.7198 18.8224 22 18.4766 22H5.78145C5.43567 22 5.15503 21.7198 5.15503 21.3736V17.0028C5.15503 16.6566 5.43567 16.3764 5.78145 16.3764C6.12724 16.3764 6.40788 16.6566 6.40788 17.0028V20.7472H17.8501V1.25285H6.40788L6.40788 4.56412C6.40788 4.91032 6.12724 5.19054 5.78145 5.19054C5.43567 5.19054 5.15503 4.91032 5.15503 4.56412V0.626423C5.15503 0.28022 5.43567 0 5.78145 0H18.4766C18.8224 0 19.103 0.28022 19.103 0.626423Z" fill="#131F35"/>
<path d="M9.89458 6.48731C9.64986 6.73204 9.64986 7.12835 9.89458 7.37308L12.8952 10.3736H0.626424C0.280638 10.3736 0 10.6539 0 11.0001C0 11.3463 0.280638 11.6265 0.626424 11.6265H12.8956L9.89458 14.6275C9.64986 14.8722 9.64986 15.2685 9.89458 15.5132C10.1393 15.758 10.5356 15.758 10.7803 15.5132L14.85 11.4436C14.9085 11.3855 14.9548 11.3158 14.9866 11.2381C14.9878 11.2352 14.9882 11.2318 14.9895 11.2285C15.0175 11.1575 15.0342 11.0807 15.0342 11.0001C15.0342 10.9195 15.0175 10.8426 14.9895 10.7716C14.9882 10.7683 14.9878 10.7654 14.9866 10.762C14.9548 10.6848 14.9085 10.615 14.85 10.5566L10.7803 6.48689C10.5356 6.24259 10.1393 6.24259 9.89458 6.48731Z" fill="#131F35"/>
</svg>
