<svg width="204" height="199" viewBox="0 0 204 199" fill="none" xmlns="http://www.w3.org/2000/svg">
<g opacity="0.5">
<path d="M191.474 112.526V191.474C191.474 194.632 189.368 196.737 186.21 196.737H107.263V102" stroke="#F9F9F9" stroke-width="3" stroke-linecap="square"/>
<path d="M12.5259 65.1575V191.473C12.5259 194.105 14.6311 196.736 17.789 196.736H107.263V12.5259" stroke="#F9F9F9" stroke-width="3" stroke-linecap="square"/>
<path d="M159.895 133.58H138.842C135.685 133.58 133.579 135.685 133.579 138.843V159.895C133.579 163.053 135.685 165.159 138.842 165.159H159.895C163.053 165.159 165.158 163.053 165.158 159.895V138.843C165.158 135.685 163.053 133.58 159.895 133.58Z" stroke="#F9F9F9" stroke-width="3" stroke-linecap="square"/>
<path d="M123.053 2L2.00011 65.1579" stroke="#F9F9F9" stroke-width="3" stroke-linecap="round" stroke-linejoin="round"/>
<path d="M111.474 65.1582L202 112.527" stroke="#F9F9F9" stroke-width="3" stroke-linecap="round" stroke-linejoin="round"/>
<path d="M49.3688 133.58H70.4214C73.5793 133.58 75.6846 135.685 75.6846 138.843V196.737H44.1056V138.843C44.1056 135.685 46.7372 133.58 49.3688 133.58Z" stroke="#F9F9F9" stroke-width="3" stroke-linecap="square"/>
<path d="M44.1056 86.2099C44.1056 95.1573 50.9477 101.999 59.8951 101.999C68.8425 101.999 75.6846 95.1573 75.6846 86.2099C75.6846 77.2625 68.8425 70.4204 59.8951 70.4204C50.9477 70.4204 44.1056 77.2625 44.1056 86.2099Z" stroke="#F9F9F9" stroke-width="3" stroke-linecap="square"/>
<path d="M49.3682 33.5789V7.26316C49.3682 4.10526 47.2629 2 44.105 2H28.3155C25.1576 2 23.0524 4.10526 23.0524 7.26316V49.3684" stroke="#F9F9F9" stroke-width="3" stroke-linecap="round" stroke-linejoin="round"/>
<path d="M202 196.736H2.00002" stroke="#F9F9F9" stroke-width="3" stroke-linecap="round" stroke-linejoin="round"/>
</g>
</svg>
