<svg width="65" height="65" viewBox="0 0 65 65" fill="none" xmlns="http://www.w3.org/2000/svg">
<path d="M32.3125 44.5C39.2161 44.5 44.8125 38.9036 44.8125 32C44.8125 25.0964 39.2161 19.5 32.3125 19.5C25.4089 19.5 19.8125 25.0964 19.8125 32C19.8125 38.9036 25.4089 44.5 32.3125 44.5Z" stroke="#2A8E9D" stroke-width="3"/>
<path d="M37.9375 2H26.6875V10.2375C24.5525 10.7875 22.545 11.64 20.705 12.7525L14.8563 6.9025L6.90126 14.8563L12.8275 20.7825C11.775 22.605 10.9788 24.5875 10.4688 26.6875H2V37.9375H10.63C11.1813 39.9563 12.0062 41.8575 13.0637 43.6063L6.9 49.77L14.855 57.725L21.0938 51.485C22.8263 52.485 24.7025 53.25 26.6863 53.7625V62.625H37.9363V53.7625C39.92 53.2513 41.7963 52.485 43.5288 51.485L49.7675 57.725L57.7225 49.7712L51.5587 43.6075C52.6175 41.8575 53.4413 39.9563 53.9925 37.9375H62.6225V26.6875H54.1538C53.645 24.5875 52.8475 22.605 51.795 20.7825L57.7212 14.8563L49.7675 6.90126L43.9163 12.7525C42.0763 11.64 40.07 10.7887 37.935 10.2375V2H37.9375Z" stroke="#131F35" stroke-width="3" stroke-linejoin="round"/>
</svg>
