<svg width="20" height="34" viewBox="0 0 20 34" fill="none" xmlns="http://www.w3.org/2000/svg">
<path d="M2.04491 9.10572L2.04512 9.09837V9.09102C2.04512 4.7308 5.63946 1.13647 9.99968 1.13647C14.3599 1.13647 17.9542 4.7308 17.9542 9.09102C17.9542 13.4512 14.3599 17.0456 9.99968 17.0456C5.49469 17.0456 1.91724 13.4463 2.04491 9.10572ZM13.2963 23.8766L12.4173 24.0794L13.0552 24.7173L17.8279 29.49C18.5872 30.2493 18.5872 31.5691 17.8279 32.3284C17.0687 33.0877 15.7489 33.0877 14.9896 32.3284L10.3532 27.692L9.99968 27.3385L9.64613 27.692L5.03542 32.3027C4.54533 32.6657 4.111 32.8637 3.59058 32.8637C3.00037 32.8637 2.59763 32.7546 2.17142 32.3284C1.41214 31.5691 1.41214 30.2493 2.17142 29.49L6.94415 24.7173L7.56859 24.0929L6.71186 23.8787C5.11495 23.4795 3.39474 22.8159 1.94993 21.8965L1.93735 21.8885L1.92432 21.8812C0.980151 21.3567 0.736501 20.0555 1.2873 19.1742L1.29413 19.1633L1.30038 19.152C1.82008 18.2166 2.98617 17.9538 4.02035 18.523C7.72472 20.7976 12.2862 20.7955 15.989 18.5169L15.992 18.515C16.4037 18.2577 16.9427 18.1937 17.4668 18.3212C17.991 18.4487 18.4507 18.7561 18.7121 19.1742C19.2629 20.0555 19.0192 21.3567 18.0751 21.8812L18.062 21.8885L18.0494 21.8965C16.5985 22.8198 15.015 23.4799 13.2963 23.8766ZM14.0451 9.09102C14.0451 6.75694 12.1723 5.04556 9.99968 5.04556C7.81445 5.04556 5.95422 6.90579 5.95422 9.09102C5.95422 11.2763 7.81445 13.1365 9.99968 13.1365C12.1849 13.1365 14.0451 11.2763 14.0451 9.09102Z" fill="#FCFCFC" stroke="#FCFCFC"/>
</svg>
