<svg width="22" height="12" viewBox="0 0 22 12" fill="none" xmlns="http://www.w3.org/2000/svg">
<path d="M1 1.3959C1 1.29458 1.03853 1.19327 1.11583 1.11596C1.27018 0.961347 1.52083 0.961347 1.67544 1.11596L10.53 9.96976C10.6548 10.0948 10.8218 10.1634 11.0002 10.1634C11.1786 10.1634 11.3456 10.0946 11.4704 9.96976L20.3244 1.11596C20.4788 0.961347 20.7297 0.961347 20.884 1.11596C21.0387 1.27057 21.0387 1.52096 20.884 1.67557L12.03 10.5294C11.7558 10.8038 11.3902 10.955 11.0002 10.955C10.6102 10.955 10.2445 10.8038 9.97015 10.5294L1.11556 1.67557C1.03852 1.59853 1 1.49721 1 1.3959Z" fill="#131F35" stroke="#131F35" stroke-width="0.5"/>
</svg>
