<svg width="18" height="14" viewBox="0 0 18 14" fill="none" xmlns="http://www.w3.org/2000/svg">
<path d="M6.52496 12.4228C6.61927 12.5213 6.74968 12.5769 6.88601 12.5769C7.02234 12.5769 7.15275 12.5213 7.24706 12.4228L17.361 1.86565C17.5464 1.67222 17.5463 1.36711 17.3609 1.17374L16.8626 0.653982C16.7683 0.555595 16.6379 0.499977 16.5016 0.5C16.3653 0.500023 16.235 0.555686 16.1407 0.654106L6.88603 10.3143L1.85936 5.06687C1.76505 4.96843 1.63463 4.91276 1.4983 4.91275C1.36197 4.91275 1.23155 4.96841 1.13724 5.06686L0.638949 5.58699C0.453685 5.78037 0.453684 6.08539 0.638946 6.27877L6.52496 12.4228Z" fill="#2A8E9D" stroke="#2A8E9D" stroke-linecap="round" stroke-linejoin="round"/>
</svg>
