<svg width="17" height="32" viewBox="0 0 17 32" fill="none" xmlns="http://www.w3.org/2000/svg">
<path d="M15.3388 1C15.4908 1 15.6427 1.05779 15.7587 1.17375C15.9906 1.40528 15.9906 1.78125 15.7587 2.01317L2.47798 15.2951C2.29039 15.4822 2.18751 15.7328 2.18751 16.0003C2.18751 16.2678 2.29078 16.5184 2.47798 16.7056L15.7587 29.9866C15.9906 30.2182 15.9906 30.5945 15.7587 30.8261C15.5268 31.058 15.1512 31.058 14.9193 30.8261L1.63857 17.545C1.22698 17.1338 1.00021 16.5852 1.00021 16.0003C1.00021 15.4154 1.22698 14.8668 1.63857 14.4552L14.9193 1.17335C15.0348 1.05819 15.1868 1 15.3388 1Z" fill="#FCFCFC" stroke="#FCFCFC"/>
</svg>
