<svg width="15" height="11" viewBox="0 0 15 11" fill="none" xmlns="http://www.w3.org/2000/svg">
<path d="M5.42133 10.3459C5.51564 10.4443 5.64606 10.5 5.78238 10.5C5.91871 10.5 6.04913 10.4443 6.14344 10.3459L14.3611 1.7682C14.5464 1.57476 14.5463 1.26965 14.3609 1.07628L13.9561 0.653982C13.8618 0.555595 13.7314 0.499977 13.5951 0.5C13.4588 0.500023 13.3284 0.555686 13.2341 0.654106L5.7824 8.43232L1.76593 4.23948C1.67162 4.14104 1.5412 4.08536 1.40487 4.08536C1.26854 4.08536 1.13812 4.14102 1.04381 4.23947L0.638949 4.66207C0.453685 4.85546 0.453684 5.16047 0.638946 5.35386L5.42133 10.3459Z" fill="#2A8E9D" stroke="#2A8E9D" stroke-linecap="round" stroke-linejoin="round"/>
</svg>
